<svg width="40" height="43" viewBox="0 0 40 43" fill="none" xmlns="http://www.w3.org/2000/svg">
<g filter="url(#filter0_d_1_1897)">
<circle cx="19.8431" cy="19.8431" r="19.8431" fill="#B169FA"/>
<circle cx="19.8431" cy="19.8431" r="18.3431" stroke="white" stroke-width="3"/>
</g>
<path d="M27.936 12.1548L27.9379 12.1581L27.9379 12.1581L30.0979 15.9097C30.0982 15.9102 30.0985 15.9108 30.0989 15.9114C30.3844 16.4007 30.2955 17.0167 29.8749 17.4062C29.8746 17.4066 29.8742 17.4069 29.8738 17.4072L28.0691 19.0927L28.0646 19.8055L29.8499 21.5116C29.85 21.5117 29.85 21.5117 29.85 21.5117C30.2592 21.9013 30.3475 22.5153 30.0612 23.0041L30.0593 23.0073L30.0593 23.0073L27.8407 26.7301C27.8404 26.7307 27.8401 26.7312 27.8398 26.7317C27.5546 27.217 26.9757 27.4448 26.436 27.2889C26.4355 27.2888 26.4351 27.2886 26.4346 27.2885L24.0357 26.6053L23.3925 26.9667L22.786 29.3414L22.7859 29.3417L22.3014 29.218C22.2208 29.5345 21.9277 29.7647 21.5906 29.7647H17.1936C16.8564 29.7647 16.5633 29.5345 16.4827 29.218L27.936 12.1548ZM27.936 12.1548C27.6509 11.6682 27.0828 11.4444 26.5425 11.5858L26.5425 11.5858L26.5375 11.5871L24.1294 12.2445L23.3933 11.8206L22.786 9.44286C22.6485 8.90307 22.1545 8.51959 21.5906 8.51959H17.1936C16.6297 8.51959 16.1357 8.90307 15.9982 9.44286L15.3909 11.8206L14.6548 12.2445L12.2467 11.5871L12.2467 11.5871L12.2416 11.5858C11.7014 11.4444 11.1332 11.6682 10.8482 12.1548L10.8482 12.1548L10.8463 12.1581L8.68523 15.9115C8.39975 16.4007 8.4887 17.0167 8.90915 17.4061C8.90955 17.4065 8.90995 17.4069 8.91035 17.4072L10.715 19.0927L10.7196 19.8055L8.93423 21.5116C8.93411 21.5117 8.93399 21.5118 8.93386 21.512C8.52493 21.9015 8.43668 22.5154 8.72294 23.0041L8.72293 23.0041L8.72485 23.0073L10.9434 26.7301C10.9438 26.7307 10.9441 26.7313 10.9444 26.7319C11.2297 27.217 11.8086 27.4448 12.3482 27.2889C12.3487 27.2888 12.3491 27.2886 12.3496 27.2885L14.7485 26.6053L15.3917 26.9667L15.9982 29.3414L27.936 12.1548ZM19.3921 22.9707C17.373 22.9707 15.7369 21.3515 15.7369 19.3921C15.7369 17.4328 17.373 15.8136 19.3921 15.8136C21.4112 15.8136 23.0473 17.4328 23.0473 19.3921C23.0473 21.3515 21.4112 22.9707 19.3921 22.9707Z" fill="white" stroke="#8014EE"/>
<defs>
<filter id="filter0_d_1_1897" x="0" y="0" width="39.6863" height="42.6863" filterUnits="userSpaceOnUse" color-interpolation-filters="sRGB">
<feFlood flood-opacity="0" result="BackgroundImageFix"/>
<feColorMatrix in="SourceAlpha" type="matrix" values="0 0 0 0 0 0 0 0 0 0 0 0 0 0 0 0 0 0 127 0" result="hardAlpha"/>
<feOffset dy="3"/>
<feComposite in2="hardAlpha" operator="out"/>
<feColorMatrix type="matrix" values="0 0 0 0 0.469182 0 0 0 0 0.180278 0 0 0 0 0.983333 0 0 0 1 0"/>
<feBlend mode="normal" in2="BackgroundImageFix" result="effect1_dropShadow_1_1897"/>
<feBlend mode="normal" in="SourceGraphic" in2="effect1_dropShadow_1_1897" result="shape"/>
</filter>
</defs>
</svg>
